<?xml version="1.0" standalone="no"?>
<!DOCTYPE svg PUBLIC "-//W3C//DTD SVG 20010904//EN"
 "http://www.w3.org/TR/2001/REC-SVG-20010904/DTD/svg10.dtd">
<svg version="1.0" xmlns="http://www.w3.org/2000/svg"
 width="512.000000pt" height="512.000000pt" viewBox="0 0 512.000000 512.000000"
 preserveAspectRatio="xMidYMid meet">
<metadata>
Created by potrace 1.14, written by Peter Selinger 2001-2017
</metadata>
<g transform="translate(0.000000,512.000000) scale(0.100000,-0.100000)"
fill="#000000" stroke="none">
<path d="M3723 4517 c-13 -5 -23 -16 -23 -24 0 -7 -10 -18 -22 -23 -13 -5 -20
-9 -16 -9 3 -1 -11 -18 -33 -39 -21 -22 -36 -42 -31 -47 4 -5 1 -5 -5 -1 -7 4
-20 -3 -30 -15 -33 -42 -155 -159 -165 -159 -5 0 -7 -3 -5 -7 6 -10 -19 -34
-27 -26 -3 4 -6 2 -6 -4 0 -11 -86 -103 -97 -104 -5 0 -26 -22 -48 -48 -22
-27 -43 -46 -47 -44 -4 2 -9 -5 -12 -14 -3 -10 -19 -27 -35 -38 -16 -10 -29
-22 -28 -25 3 -10 -60 -70 -73 -70 -6 0 -8 -4 -5 -10 3 -5 -1 -10 -9 -10 -9 0
-16 -4 -16 -8 0 -5 -18 -27 -40 -50 -22 -22 -40 -39 -40 -37 0 2 -11 -7 -25
-21 -14 -14 -25 -26 -25 -28 0 -6 -125 -131 -167 -167 -23 -20 -39 -40 -35
-43 3 -4 -4 -9 -16 -13 -12 -3 -22 -10 -22 -15 0 -11 -60 -68 -72 -68 -5 0 -8
-4 -8 -10 0 -13 -37 -50 -50 -50 -5 0 -10 -6 -10 -12 0 -7 -14 -22 -30 -33
-16 -11 -30 -24 -30 -29 0 -12 -49 -56 -63 -56 -7 0 -6 -4 3 -10 10 -7 11 -10
2 -10 -7 0 -48 -36 -92 -80 -44 -43 -80 -76 -80 -73 0 3 -9 -6 -21 -21 -28
-35 -180 -186 -188 -186 -3 0 -15 -13 -26 -29 -10 -16 -22 -28 -26 -25 -4 2
-10 -5 -14 -16 -3 -11 -13 -20 -21 -20 -8 0 -14 -3 -11 -7 4 -10 -160 -172
-168 -165 -3 3 -5 0 -5 -7 0 -16 -57 -71 -66 -63 -4 4 -4 1 0 -6 5 -9 1 -15
-12 -19 -11 -2 -23 -14 -25 -25 -4 -13 -10 -17 -18 -12 -7 4 -10 3 -5 -4 3 -6
-3 -14 -15 -17 -11 -4 -18 -9 -15 -12 3 -3 -14 -23 -37 -45 -23 -22 -41 -43
-40 -48 2 -5 -5 -6 -15 -3 -9 3 -14 3 -10 -1 7 -8 -27 -46 -41 -46 -5 0 -12
-8 -15 -17 -3 -10 -19 -27 -35 -38 -16 -10 -28 -22 -27 -25 5 -9 -63 -68 -70
-61 -4 3 -4 -3 0 -14 4 -11 4 -16 1 -13 -4 4 -26 -13 -50 -37 -24 -24 -46 -41
-49 -37 -3 3 -6 -3 -6 -13 0 -10 -3 -15 -6 -12 -4 4 -19 -9 -34 -28 -15 -19
-30 -32 -34 -28 -3 3 -6 -1 -6 -10 0 -15 -11 -22 -32 -18 -5 0 -7 -2 -7 -7 3
-19 -2 -32 -13 -32 -7 0 -22 -13 -33 -29 -10 -16 -22 -28 -26 -25 -4 2 -10 -5
-14 -16 -4 -11 -10 -18 -14 -16 -4 3 -16 -9 -26 -25 -11 -16 -26 -29 -32 -29
-7 0 -13 -4 -13 -10 0 -13 -37 -50 -43 -43 -3 2 -8 -5 -12 -16 -3 -12 -13 -21
-21 -21 -8 0 -13 -4 -9 -9 3 -5 -4 -13 -16 -16 -11 -4 -18 -9 -15 -13 4 -3 -6
-14 -21 -24 -16 -10 -24 -18 -19 -18 5 0 -7 -13 -27 -29 -20 -15 -35 -30 -34
-32 1 -2 -22 -27 -50 -55 -29 -28 -53 -50 -53 -48 0 2 -9 -5 -20 -16 -11 -11
-20 -24 -20 -29 0 -5 -7 -11 -15 -15 -21 -8 -19 -38 3 -34 9 2 20 8 24 13 5 6
8 5 8 -3 0 -9 5 -10 19 -2 14 7 21 6 25 -3 3 -8 9 -6 20 7 14 17 16 18 16 3 0
-18 20 -19 32 -2 5 6 8 5 8 -3 0 -9 5 -10 19 -2 14 7 21 6 24 -3 4 -9 8 -8 16
3 6 8 11 11 11 6 0 -5 7 -3 15 4 13 11 14 10 8 -6 -6 -17 -5 -17 10 -5 9 7 17
10 17 5 0 -5 14 -9 30 -10 17 -1 30 2 30 7 0 4 9 6 20 4 11 -2 18 0 15 5 -6
10 36 56 47 53 5 -2 8 4 8 12 0 8 7 15 17 15 9 0 14 3 10 6 -8 8 18 34 34 34
7 0 10 3 7 6 -8 7 115 132 125 126 5 -2 11 5 14 17 3 12 12 21 19 21 8 0 13 3
12 8 -4 11 47 62 62 62 7 0 11 3 7 6 -7 7 29 44 43 44 5 0 9 3 7 8 -3 10 40
52 47 45 3 -4 6 0 6 8 0 17 34 49 52 49 6 0 9 3 6 6 -8 7 68 84 83 84 7 0 10
3 6 6 -8 8 48 64 64 64 7 0 10 3 6 6 -7 7 649 664 664 664 5 0 8 3 6 8 -6 9
60 72 67 64 3 -3 6 0 6 6 0 6 60 72 134 146 74 74 131 138 128 142 -4 4 1 4
11 1 10 -4 16 -3 13 2 -3 5 17 29 44 54 27 25 46 48 43 51 -4 3 -2 6 4 6 6 0
32 21 59 48 27 26 52 46 56 45 4 -2 8 3 8 10 0 14 35 47 50 47 6 0 9 3 8 8 -2
4 16 27 40 51 23 24 42 47 42 52 0 5 9 9 21 9 11 0 18 4 15 8 -3 5 18 31 47
58 29 27 51 52 50 56 -2 5 1 8 6 8 12 0 191 178 191 190 0 6 3 9 8 8 4 -2 19
10 34 25 15 15 24 27 20 27 -4 0 5 8 21 18 15 10 24 22 20 25 -3 4 0 7 9 7 8
0 21 11 28 25 7 13 22 27 32 31 10 3 17 8 15 12 -2 4 4 15 15 25 10 9 18 15
18 13 0 -3 13 7 28 22 15 15 27 30 25 34 -2 4 6 10 18 13 11 4 18 9 16 12 -7
7 31 43 45 43 6 0 9 2 6 5 -5 5 58 75 67 75 1 0 40 37 85 83 46 45 87 81 92
79 5 -1 7 1 4 6 -7 12 119 133 129 124 5 -4 6 -2 2 3 -3 6 17 33 44 60 32 32
45 51 37 56 -18 11 -330 8 -355 -4z m-1952 -2000 l-24 -22 19 27 c10 14 21 24
23 22 3 -3 -6 -15 -18 -27z m-73 -76 c-13 -15 -25 -27 -27 -25 -4 4 39 54 47
54 2 0 -7 -13 -20 -29z"/>
<path d="M4554 3965 c-4 -8 -9 -13 -14 -10 -4 2 -13 -7 -20 -20 -7 -14 -16
-25 -20 -25 -3 0 -15 -8 -26 -17 -25 -23 -43 -26 -59 -13 -9 7 -15 7 -19 1 -7
-11 -46 -11 -46 1 0 4 -13 2 -30 -3 -16 -6 -30 -17 -30 -25 0 -8 -7 -14 -16
-14 -8 0 -12 -5 -9 -10 3 -6 -5 -14 -19 -20 -14 -5 -26 -12 -26 -15 0 -4 5 -3
12 1 7 4 8 3 4 -4 -4 -7 -14 -12 -22 -12 -8 0 -13 -6 -11 -12 1 -7 -4 -12 -10
-10 -7 1 -13 -2 -13 -6 0 -5 -9 -19 -20 -32 -11 -13 -20 -21 -20 -18 0 3 -19
-13 -43 -36 -23 -22 -41 -42 -41 -44 1 -2 -27 -30 -62 -63 -35 -32 -62 -59
-60 -59 2 0 -55 -60 -127 -133 -73 -73 -135 -131 -139 -129 -5 2 -8 -1 -8 -6
0 -14 -47 -62 -54 -55 -3 4 -6 1 -6 -5 0 -6 -37 -47 -81 -91 -56 -55 -79 -83
-73 -93 6 -10 5 -10 -9 1 -9 7 -17 9 -17 4 0 -6 -9 -20 -20 -33 -11 -13 -20
-20 -20 -16 0 4 -17 -12 -38 -36 -58 -66 -111 -116 -117 -110 -3 3 -5 0 -5 -6
0 -14 -64 -82 -78 -82 -6 0 -14 -9 -17 -20 -3 -11 -13 -20 -21 -20 -8 0 -14
-3 -12 -7 4 -10 -100 -112 -107 -105 -3 3 -5 0 -5 -7 0 -14 -68 -81 -83 -81
-5 0 -7 -3 -4 -6 3 -4 -5 -15 -18 -26 -14 -11 -23 -24 -19 -29 3 -5 1 -8 -3
-7 -5 2 -26 -12 -47 -29 -20 -18 -34 -33 -31 -33 3 0 -12 -17 -32 -38 -21 -22
-40 -38 -43 -38 -3 1 -21 -15 -41 -36 -21 -21 -35 -38 -33 -38 3 0 -6 -11 -18
-24 -13 -13 -26 -22 -30 -20 -4 3 -9 -5 -13 -16 -3 -11 -12 -20 -18 -20 -7 -1
-25 -18 -42 -39 -16 -21 -33 -37 -37 -35 -4 3 -9 -5 -13 -15 -3 -11 -15 -23
-25 -26 -10 -3 -22 -15 -25 -26 -4 -10 -11 -17 -16 -14 -5 4 -9 2 -9 -3 0 -5
-11 -22 -25 -38 -14 -16 -25 -25 -25 -21 0 4 -11 -5 -25 -20 -39 -45 -79 -83
-87 -83 -4 0 -9 -9 -13 -19 -3 -11 -15 -23 -26 -26 -10 -4 -17 -11 -14 -16 4
-5 -1 -9 -9 -9 -8 0 -18 -9 -21 -20 -3 -11 -10 -20 -14 -20 -10 0 -644 -635
-649 -649 -2 -6 -7 -9 -12 -6 -5 3 -11 -4 -15 -15 -4 -11 -10 -18 -15 -15 -5
3 -11 -4 -15 -15 -3 -11 -12 -19 -18 -17 -7 1 -11 -4 -9 -11 1 -8 -7 -16 -18
-19 -11 -3 -18 -9 -15 -13 3 -5 -4 -11 -15 -15 -11 -3 -19 -12 -17 -18 1 -7
-3 -11 -10 -10 -6 2 -15 -6 -18 -17 -3 -10 -14 -21 -23 -24 -9 -3 -26 -19 -37
-35 -11 -17 -21 -28 -23 -26 -5 5 -52 -45 -52 -55 0 -4 -11 -12 -25 -18 -21
-10 -36 -42 -20 -42 15 0 53 24 49 31 -3 5 2 9 10 9 9 0 16 7 16 15 0 8 10 19
21 26 29 15 89 76 89 89 0 6 3 10 8 7 9 -4 141 131 134 138 -3 3 -1 5 5 5 5 0
22 11 37 25 15 14 23 25 19 25 -4 0 6 9 22 20 17 11 27 20 23 20 -4 0 9 16 29
35 20 19 41 35 46 35 6 0 8 2 5 5 -7 7 91 105 104 105 6 0 8 3 5 7 -4 3 8 17
26 30 17 13 32 27 32 31 0 4 4 6 8 4 5 -1 6 2 3 7 -4 5 3 13 15 16 11 4 18 9
16 12 -7 6 41 53 54 53 6 0 8 3 6 8 -2 4 16 25 40 48 24 23 43 38 43 35 0 -3
8 6 18 22 10 15 22 24 25 20 4 -3 7 -1 7 5 0 14 69 82 83 82 6 0 8 3 4 6 -7 7
3 18 47 52 16 12 26 22 23 22 -2 0 15 20 40 45 24 25 49 45 55 45 6 0 9 3 5 6
-7 7 72 84 85 84 4 0 8 4 8 9 0 12 217 231 230 231 5 0 10 5 10 10 0 15 37 49
45 42 4 -4 5 0 3 8 -2 8 3 14 10 12 8 -1 11 2 7 8 -3 5 -1 10 4 10 6 0 11 8
11 18 0 14 2 15 10 2 8 -13 10 -12 10 3 0 9 6 17 13 17 6 0 21 14 32 30 11 16
26 30 33 30 6 0 12 4 12 9 0 12 47 61 53 55 3 -3 8 4 12 15 3 12 10 19 15 16
5 -3 11 4 15 15 4 11 10 18 15 15 5 -3 12 4 15 16 4 11 9 18 12 15 3 -3 18 10
33 29 15 19 30 32 33 29 3 -3 8 4 12 15 3 12 13 21 21 21 8 0 13 4 9 9 -3 5 4
13 15 16 18 6 19 9 8 23 -10 12 -10 14 -1 8 7 -4 23 0 35 8 12 9 19 16 15 16
-4 0 2 9 13 20 11 11 25 20 30 20 6 0 10 4 10 9 0 6 42 51 93 102 50 50 91 95
90 100 -2 5 1 8 5 6 15 -4 114 102 106 114 -5 8 -3 9 5 4 8 -4 40 21 89 71 42
43 81 78 85 76 5 -1 6 2 3 7 -7 11 19 33 28 23 4 -4 6 -2 4 3 -4 13 49 65 57
57 3 -4 3 2 -1 11 -3 10 -2 17 3 15 13 -4 134 117 126 126 -3 3 0 6 7 6 16 0
160 146 152 154 -3 4 0 6 6 6 6 0 74 62 149 138 l138 137 57 1 56 1 -16 -23
c-9 -12 -20 -20 -23 -18 -3 2 -12 -7 -19 -20 -7 -13 -23 -29 -36 -36 -13 -7
-21 -17 -19 -21 3 -4 -4 -10 -15 -14 -11 -3 -20 -14 -20 -22 0 -9 -2 -14 -5
-11 -6 5 -65 -48 -65 -58 0 -13 -63 -63 -72 -58 -6 4 -8 3 -5 -3 6 -10 -10
-30 -48 -59 -11 -9 -14 -12 -6 -8 9 5 12 3 7 -4 -4 -7 -14 -12 -22 -12 -8 0
-14 -7 -14 -16 0 -8 -4 -12 -10 -9 -5 3 -10 -1 -10 -9 0 -9 5 -16 10 -16 15 0
60 46 60 61 0 7 3 10 6 7 7 -8 234 218 234 233 0 5 4 8 8 5 5 -3 16 6 26 19
10 14 22 22 27 19 5 -3 9 2 9 10 0 9 4 16 8 16 5 0 14 10 20 23 7 14 11 16 11
7 1 -13 3 -13 10 -1 7 10 30 15 70 16 34 1 61 0 61 -2 0 -5 -126 -129 -154
-151 -13 -9 -24 -21 -27 -27 -2 -5 -7 -9 -11 -7 -5 1 -8 -5 -8 -13 0 -8 6 -15
13 -15 14 0 53 41 49 53 -1 4 3 7 9 7 17 0 181 169 174 180 -4 6 -12 7 -18 3
-19 -12 -81 -11 -96 1 -11 8 -13 8 -7 -1 4 -8 1 -13 -9 -13 -13 0 -14 4 -5 20
6 11 16 20 21 20 6 0 8 7 5 16 -3 9 -2 12 5 9 8 -6 49 29 49 42 0 10 -32 1
-36 -12z"/>
<path d="M4374 3625 c-4 -8 -9 -13 -13 -12 -3 2 -16 -7 -28 -20 -12 -13 -20
-23 -18 -23 2 0 -8 -13 -23 -29 -15 -15 -30 -26 -34 -24 -4 2 -9 -6 -13 -17
-3 -11 -13 -20 -21 -20 -8 0 -14 -5 -14 -11 0 -13 -38 -49 -52 -49 -5 0 -7 -4
-3 -9 7 -12 45 -10 45 1 0 5 13 22 29 37 16 16 27 32 24 35 -4 3 3 6 15 6 13
0 22 6 22 15 0 8 7 15 16 15 8 0 13 4 9 9 -3 6 4 15 15 21 11 6 18 15 15 19
-2 5 9 14 25 21 16 7 27 16 24 21 -3 5 0 9 6 9 6 0 8 5 5 10 -9 15 -25 12 -31
-5z"/>
<path d="M4013 3433 c4 -3 -8 -17 -25 -30 -18 -12 -28 -23 -24 -23 4 0 -13
-18 -38 -39 -25 -21 -42 -42 -39 -45 4 -3 2 -6 -3 -6 -15 0 -64 -46 -64 -60 0
-7 -2 -11 -5 -8 -5 4 -75 -58 -75 -67 0 -1 -17 -20 -37 -41 -20 -21 -33 -32
-29 -24 4 8 1 7 -8 -4 -8 -10 -29 -34 -46 -52 -34 -38 -37 -47 -15 -50 8 -1
15 4 15 12 0 8 5 14 10 14 6 0 15 11 22 25 6 13 14 22 18 20 4 -2 29 20 55 50
27 30 52 52 57 49 4 -3 5 2 2 11 -4 10 -2 15 7 13 8 -2 13 4 13 14 -1 10 2 15
6 13 10 -6 60 41 52 49 -5 5 6 8 25 5 11 -1 24 31 17 43 -4 6 -3 8 4 4 12 -7
82 58 82 76 0 6 2 9 5 6 8 -8 54 35 49 44 -3 5 -12 8 -21 8 -9 0 -13 -3 -10
-7z"/>
<path d="M4133 3394 c6 -6 -40 -54 -51 -54 -4 0 -16 -14 -27 -30 -11 -17 -28
-33 -37 -36 -10 -3 -18 -9 -18 -14 0 -11 -360 -370 -371 -370 -5 0 -9 -6 -9
-13 0 -8 -11 -20 -25 -27 -13 -7 -23 -16 -22 -20 3 -9 -93 -100 -106 -100 -6
0 -8 -2 -5 -5 7 -8 -67 -85 -81 -85 -14 0 -14 -17 -1 -25 6 -4 27 10 46 29 20
20 40 36 46 36 5 0 7 4 3 9 -3 6 4 15 15 21 11 6 17 16 14 22 -4 7 -3 8 4 4 6
-4 17 2 24 14 7 11 18 20 25 20 7 0 13 6 13 14 0 8 7 17 16 20 9 4 14 13 10
22 -3 9 -2 12 4 9 12 -7 71 45 64 57 -3 4 7 10 21 14 14 3 25 10 25 16 0 12
52 64 62 60 4 -1 8 3 8 8 0 13 57 70 70 70 6 0 9 3 8 8 -4 11 89 102 96 95 3
-4 6 -1 6 6 0 7 16 27 35 45 19 19 35 39 35 45 0 7 4 10 9 6 5 -3 12 4 16 15
4 11 10 18 14 15 5 -2 24 13 42 35 19 22 40 40 47 40 20 0 9 23 -12 26 -10 1
-16 0 -13 -2z"/>
<path d="M3560 2976 c0 -8 -9 -18 -20 -21 -11 -3 -20 -10 -20 -15 0 -5 -10
-18 -22 -30 -17 -16 -19 -23 -10 -32 9 -9 12 -9 12 1 0 7 4 10 9 7 5 -3 14 8
21 24 7 16 15 28 19 25 11 -6 43 34 36 45 -9 15 -25 12 -25 -4z"/>
<path d="M3433 2852 c-18 -18 -32 -35 -33 -37 -1 -13 -36 -41 -45 -37 -5 3 -7
2 -3 -2 4 -4 -10 -22 -30 -39 -20 -18 -38 -35 -40 -39 -5 -11 -51 -58 -57 -58
-3 0 -6 -3 -6 -7 -1 -5 -16 -18 -33 -31 -17 -13 -30 -28 -28 -33 1 -5 -5 -9
-13 -9 -17 0 -20 -16 -5 -25 12 -7 40 18 40 35 0 6 4 9 9 6 5 -3 23 12 42 34
18 21 36 37 40 34 4 -2 12 10 19 26 7 16 15 28 19 27 9 -3 111 101 111 113 0
6 3 9 8 8 9 -4 52 39 52 51 0 21 -17 15 -47 -17z"/>
<path d="M3298 2550 c-36 -38 -69 -66 -72 -63 -3 4 -6 2 -6 -4 0 -13 -77 -93
-83 -86 -3 2 -8 -5 -12 -16 -3 -12 -13 -21 -21 -21 -8 0 -14 -4 -14 -9 0 -14
-45 -61 -59 -61 -6 0 -11 -4 -11 -9 0 -11 -120 -131 -131 -131 -5 0 -8 -6 -7
-12 2 -7 -3 -12 -10 -10 -6 1 -11 -4 -10 -10 2 -7 -3 -12 -9 -10 -7 1 -13 -2
-13 -7 0 -13 -219 -231 -232 -231 -6 0 -9 -2 -6 -5 4 -5 -109 -125 -117 -125
-2 0 -15 -11 -29 -25 -14 -14 -23 -25 -20 -25 3 0 -14 -18 -37 -40 -24 -22
-47 -40 -51 -40 -4 0 -8 -6 -8 -12 0 -13 -68 -78 -81 -78 -4 0 -9 -10 -12 -22
-4 -12 -9 -19 -12 -16 -7 7 -55 -39 -55 -53 0 -6 -4 -7 -10 -4 -5 3 -10 3 -10
-2 0 -13 -57 -73 -63 -67 -3 3 -8 -4 -12 -15 -3 -12 -13 -21 -21 -21 -8 0 -12
-4 -9 -10 3 -5 -1 -10 -9 -10 -9 0 -16 -3 -16 -7 0 -13 -47 -63 -59 -63 -6 0
-11 -6 -11 -14 0 -8 -9 -18 -20 -21 -11 -3 -20 -9 -20 -13 0 -12 -68 -82 -79
-82 -6 0 -11 -4 -11 -8 0 -13 -111 -122 -123 -122 -6 0 -8 -3 -5 -6 6 -6 -71
-84 -83 -84 -4 0 -11 -9 -14 -20 -4 -11 -10 -18 -15 -15 -4 3 -15 -7 -24 -20
-9 -14 -21 -23 -26 -20 -4 3 -11 -1 -13 -7 -4 -9 -8 -10 -14 -2 -4 5 -25 10
-46 9 l-38 -1 40 39 c23 22 41 43 41 48 0 5 7 9 15 9 8 0 14 3 13 8 -2 4 -1 7
2 7 8 1 56 50 54 55 -1 3 4 11 12 18 8 7 14 11 14 9 0 -2 48 44 108 102 59 58
106 109 105 112 -1 3 7 12 19 20 24 17 112 107 116 120 2 5 11 9 20 9 8 0 12
3 9 6 -4 4 10 20 30 35 20 16 33 29 30 29 -3 0 9 15 26 33 18 18 35 31 40 29
4 -2 7 1 7 6 0 13 148 160 155 154 3 -3 5 2 5 11 0 8 9 18 19 22 10 3 21 15
24 26 3 12 10 18 16 14 6 -3 11 -2 11 3 0 15 36 52 50 52 7 0 11 3 8 6 -8 7
28 44 42 44 6 0 10 5 10 10 0 15 46 60 61 60 7 0 10 2 7 5 -7 7 71 85 85 85 6
0 8 3 4 6 -8 8 16 33 26 27 4 -2 7 1 7 6 0 14 88 101 101 101 5 0 9 5 9 11 0
14 79 89 93 89 6 0 8 3 5 6 -3 3 31 42 76 86 44 44 80 84 79 89 -2 4 6 11 17
14 11 4 20 11 20 16 0 6 5 7 10 4 6 -3 10 -1 10 6 0 6 15 24 32 40 26 22 30
31 21 40 -10 10 -14 9 -19 -4 -3 -9 -10 -14 -15 -11 -5 3 -9 1 -9 -3 0 -13
-57 -73 -63 -67 -3 3 -13 -8 -23 -25 -10 -17 -27 -34 -37 -37 -10 -3 -16 -8
-14 -11 6 -6 -46 -61 -54 -57 -3 2 -12 -7 -19 -20 -7 -13 -23 -29 -36 -36 -13
-7 -21 -17 -19 -21 3 -4 -4 -10 -15 -14 -11 -4 -19 -9 -17 -13 2 -4 -10 -19
-25 -34 -15 -15 -28 -24 -28 -20 0 3 -7 -4 -16 -16 -8 -12 -20 -20 -25 -17 -5
3 -6 -2 -2 -11 4 -12 3 -15 -5 -10 -7 4 -12 3 -12 -3 0 -6 -11 -21 -25 -35
-14 -14 -25 -23 -25 -21 0 2 -10 -6 -23 -18 -13 -12 -22 -25 -20 -28 1 -3 -9
-12 -22 -19 -13 -7 -23 -16 -21 -19 2 -3 -16 -22 -38 -41 -23 -19 -55 -51 -72
-71 -16 -21 -41 -44 -57 -54 -15 -9 -25 -21 -22 -26 4 -5 -1 -9 -10 -9 -9 0
-13 -4 -10 -10 3 -5 1 -10 -4 -10 -15 0 -51 -37 -44 -44 4 -3 2 -6 -3 -6 -15
0 -64 -46 -57 -54 3 -3 1 -6 -5 -6 -13 0 -53 -36 -47 -42 2 -2 -9 -12 -26 -23
-16 -11 -29 -26 -29 -33 0 -7 -3 -11 -7 -9 -9 5 -34 -18 -28 -25 2 -2 -9 -12
-25 -23 -16 -11 -35 -30 -41 -42 -7 -13 -16 -23 -20 -23 -11 0 -69 -60 -69
-71 0 -6 -4 -8 -8 -5 -5 3 -14 -5 -21 -17 -7 -12 -27 -33 -44 -46 -18 -13 -47
-42 -64 -64 -18 -21 -33 -37 -33 -33 0 3 -10 -5 -23 -17 -13 -12 -23 -24 -22
-27 1 -3 -6 -13 -17 -23 -10 -9 -18 -14 -18 -10 0 5 -9 -5 -20 -22 -11 -16
-20 -27 -20 -24 0 3 -37 -31 -83 -75 -46 -45 -82 -82 -81 -84 4 -7 -44 -52
-55 -52 -7 0 -9 -4 -6 -10 3 -5 -1 -10 -9 -10 -9 0 -16 -4 -16 -8 0 -5 -20 -8
-45 -7 -27 2 -49 -3 -56 -11 -8 -10 -3 -12 23 -11 18 1 36 6 40 12 5 6 8 6 8
-2 0 -17 -70 -98 -103 -117 -15 -10 -25 -22 -22 -27 4 -5 2 -9 -4 -9 -10 0
-35 -23 -75 -68 -19 -22 -19 -22 8 -22 15 0 25 3 23 8 -6 9 19 33 27 25 3 -4
6 1 6 10 0 9 7 17 17 17 9 0 14 3 10 6 -7 7 29 44 44 44 5 0 7 5 4 10 -3 6 -2
10 4 10 6 0 21 11 35 25 14 14 23 25 20 25 -3 0 6 11 18 24 13 13 25 24 28 24
3 0 10 1 15 2 29 7 95 4 98 -5 5 -13 -29 -45 -38 -37 -4 4 -5 0 -3 -8 1 -8 -1
-14 -7 -14 -5 1 -20 -11 -33 -27 -21 -26 -22 -29 -5 -29 20 0 93 63 93 79 0 6
5 11 10 11 12 0 50 37 50 48 0 5 11 15 25 22 13 7 22 17 19 22 -3 4 -2 8 3 8
10 0 102 87 131 125 12 15 22 25 22 22 0 -7 120 113 156 156 13 16 24 26 24
23 0 -2 13 7 28 22 15 15 26 30 24 35 -2 4 1 7 6 7 16 0 92 81 86 91 -3 5 -2
8 3 7 5 -2 21 7 37 20 16 12 25 22 20 22 -5 1 1 6 13 13 12 7 23 17 25 22 2 6
6 9 11 7 4 -1 7 4 7 10 0 7 16 24 34 38 19 14 33 27 31 30 -2 3 3 11 11 18 8
7 14 10 14 6 0 -4 13 9 29 29 15 20 31 34 35 30 3 -3 6 -1 6 5 0 12 35 52 42
48 2 -2 11 6 21 16 9 10 14 18 11 18 -3 0 1 7 10 15 8 8 19 15 25 15 6 0 10 3
8 8 -1 4 3 9 8 12 6 3 24 21 40 40 43 50 55 62 55 56 0 -4 22 18 49 48 27 30
52 52 55 49 3 -4 6 -2 6 4 0 14 68 82 75 75 3 -3 5 0 5 7 0 16 108 119 117
112 3 -3 3 2 0 12 -4 10 -3 16 1 13 5 -3 31 19 59 49 28 29 54 51 57 48 3 -4
6 1 6 11 0 9 5 14 10 11 6 -3 10 0 10 8 0 7 11 20 25 27 13 7 22 16 20 20 -5
8 32 40 47 40 6 0 9 3 6 6 -7 6 98 114 111 114 5 0 11 9 14 20 3 11 12 20 21
20 9 0 16 5 16 10 0 12 49 60 61 60 7 0 7 26 -2 34 -2 2 -34 -27 -71 -64z"/>
</g>
</svg>
